<?xml version="1.0" standalone="no"?>
<!DOCTYPE svg PUBLIC "-//W3C//DTD SVG 20010904//EN"
 "http://www.w3.org/TR/2001/REC-SVG-20010904/DTD/svg10.dtd">
<svg version="1.0" xmlns="http://www.w3.org/2000/svg"
 width="1515.000000pt" height="1920.000000pt" viewBox="0 0 1515.000000 1920.000000"
 preserveAspectRatio="xMidYMid meet">

<g transform="translate(0.000000,1920.000000) scale(0.100000,-0.100000)"
fill="#000000" stroke="none">
<path d="M6795 19194 c-157 -6 -431 -24 -535 -35 -52 -5 -108 -11 -125 -13
-249 -26 -660 -130 -949 -240 -428 -163 -893 -419 -1321 -727 -38 -28 -81 -58
-95 -67 -82 -53 -515 -383 -665 -507 -54 -44 -114 -93 -135 -110 -95 -76 -273
-235 -477 -426 -288 -271 -536 -532 -806 -849 -171 -201 -356 -465 -438 -625
-40 -78 -51 -89 -194 -203 -570 -456 -909 -989 -1015 -1600 -79 -453 -40 -996
100 -1397 47 -134 158 -356 241 -480 109 -165 202 -275 357 -427 78 -76 138
-138 133 -138 -29 0 -228 -33 -281 -47 -91 -23 -137 -44 -198 -90 -133 -101
-194 -221 -207 -409 -6 -87 5 -284 20 -354 3 -14 8 -41 11 -60 55 -323 290
-831 511 -1105 94 -115 230 -204 360 -235 l53 -12 -1 -101 c-2 -143 -6 -156
-54 -176 -194 -77 -336 -285 -402 -586 -22 -100 -25 -399 -5 -490 23 -102 61
-223 97 -301 l34 -75 -25 -40 c-42 -67 -160 -308 -207 -424 -90 -219 -187
-571 -221 -795 -22 -149 -30 -236 -41 -450 -19 -379 64 -837 213 -1164 131
-290 348 -578 587 -782 89 -76 275 -214 288 -214 3 0 8 17 12 38 15 83 163
412 185 412 4 0 10 -57 13 -127 6 -131 10 -155 53 -350 101 -450 318 -856 619
-1158 174 -174 419 -338 640 -427 230 -94 311 -125 317 -122 3 2 2 21 -4 42
-6 20 -11 105 -11 187 1 171 20 281 79 455 52 152 60 163 83 114 44 -96 248
-370 375 -503 42 -43 203 -187 291 -260 148 -121 322 -232 645 -411 501 -278
712 -423 1044 -715 200 -176 323 -310 545 -594 l19 -24 58 78 c185 251 470
529 779 762 215 162 531 359 885 552 52 28 111 62 132 74 20 12 58 35 85 51
46 28 267 184 308 217 92 77 133 114 219 198 183 178 331 360 435 539 23 40
46 70 50 67 10 -6 73 -177 94 -255 35 -132 42 -195 42 -401 l0 -176 60 22
c288 109 475 208 685 364 109 81 241 203 323 300 198 231 415 670 487 987 20
84 20 88 30 139 6 28 12 61 15 75 3 14 13 87 22 162 l17 137 24 -42 c45 -76
105 -210 137 -304 l31 -92 64 42 c333 220 624 552 789 901 66 138 78 167 119
297 90 283 116 468 117 834 0 278 -6 361 -41 560 -74 428 -223 844 -421 1172
l-44 72 20 38 c28 55 87 228 99 293 34 170 39 292 17 431 -49 323 -205 587
-401 678 l-51 23 -7 76 c-3 41 -6 101 -6 133 0 63 -3 60 70 73 188 34 347 184
532 501 196 335 324 702 359 1022 6 59 13 111 15 114 2 4 52 -41 111 -100 188
-187 414 -315 673 -381 97 -25 110 -27 245 -41 183 -19 422 7 600 65 120 40
329 148 429 223 222 166 401 390 507 635 51 117 73 186 101 315 32 151 32 450
1 593 -64 288 -198 541 -397 748 -206 214 -459 356 -776 434 -98 24 -394 36
-492 20 -49 -8 -58 -7 -62 7 -3 9 -23 81 -45 161 -242 887 -541 1748 -834
2405 -206 460 -631 1337 -767 1580 -413 738 -821 1234 -1240 1507 -94 61 -272
145 -376 177 -216 67 -410 90 -789 91 -284 1 -765 12 -1245 29 -294 11 -1149
20 -1305 15z m3528 -2909 c239 -59 389 -104 404 -123 7 -9 34 -60 59 -112 84
-177 118 -245 201 -400 101 -192 106 -204 67 -169 -50 45 -347 252 -436 304
-394 230 -354 194 -413 371 -63 188 -60 178 -41 171 9 -4 80 -22 159 -42z
m-3703 -75 c362 -19 774 -62 1045 -110 181 -32 327 -59 420 -80 40 -8 95 -21
260 -61 143 -34 488 -134 631 -183 411 -140 935 -385 1224 -571 385 -247 567
-390 810 -634 227 -228 309 -341 370 -509 33 -91 41 -123 65 -262 24 -138 30
-231 30 -490 0 -318 -9 -409 -65 -630 -27 -106 -40 -150 -69 -223 l-11 -27
-72 73 c-123 124 -320 261 -598 419 -76 43 -380 194 -485 241 -289 128 -751
296 -1085 392 -299 86 -884 224 -1060 250 -14 2 -61 10 -105 19 -337 62 -761
111 -1200 137 -223 13 -1047 6 -1170 -10 -44 -6 -132 -15 -195 -21 -259 -22
-618 -71 -925 -125 -140 -24 -188 -33 -435 -85 -88 -18 -409 -97 -490 -120
-19 -5 -98 -28 -175 -49 -703 -200 -1452 -522 -2025 -871 -194 -118 -320 -226
-378 -322 -9 -16 -19 -28 -23 -28 -4 0 -28 48 -54 107 -50 115 -105 301 -125
423 -7 41 -14 86 -16 100 -18 108 -18 579 0 700 3 19 11 71 17 115 27 195 92
371 185 502 95 133 452 474 654 624 599 444 1404 807 2260 1019 151 38 427
100 505 115 44 8 118 21 165 30 168 32 488 80 600 90 36 4 97 10 135 15 319
42 975 61 1385 40z m5629 -2703 c137 -209 248 -364 370 -519 l51 -66 -33 -25
c-233 -183 -413 -476 -500 -810 -31 -119 -31 -127 -32 -352 0 -241 8 -302 56
-444 11 -30 19 -55 19 -57 0 -1 -24 9 -52 23 -125 60 -283 93 -452 93 l-109 0
7 48 c10 78 44 163 90 232 77 113 204 341 262 470 95 213 185 499 214 685 6
39 13 81 15 95 16 89 27 363 22 540 -5 162 -4 201 6 187 7 -10 36 -55 66 -100z
m-5634 -187 c371 -25 448 -31 580 -45 188 -20 339 -40 530 -70 542 -85 1138
-238 1650 -425 148 -54 415 -159 430 -169 6 -3 -438 -8 -985 -11 -547 -3
-1008 -9 -1025 -13 -16 -4 -68 -17 -115 -29 -177 -43 -366 -137 -531 -263
-118 -92 -289 -281 -354 -392 l-19 -33 -467 0 -466 0 -41 63 c-46 72 -165 210
-238 277 -156 143 -341 253 -540 319 -205 69 -119 64 -1314 70 l-1085 6 59 28
c87 40 378 151 561 213 432 147 1003 289 1405 350 25 3 52 8 60 9 22 4 160 25
195 29 321 42 392 49 645 66 441 30 810 37 1065 20z m7117 -686 c473 -66 820
-442 827 -899 5 -301 -138 -587 -392 -780 -65 -50 -236 -129 -327 -151 -102
-25 -317 -26 -416 -2 -145 36 -305 121 -428 229 -112 99 -234 305 -277 469
-30 111 -32 328 -4 434 57 221 191 415 377 543 87 60 154 92 258 123 61 18
190 43 257 49 7 1 63 -6 125 -15z m-9065 -770 c149 -34 290 -131 393 -269 209
-278 275 -646 196 -1080 -6 -34 -47 -169 -70 -233 -29 -80 -123 -257 -183
-345 -175 -256 -392 -447 -661 -582 -137 -68 -250 -108 -410 -142 -113 -24
-149 -27 -317 -27 -208 0 -283 10 -457 64 -272 84 -490 221 -699 437 -203 211
-349 474 -406 733 -26 121 -29 207 -25 715 5 602 3 586 88 665 48 44 76 58
144 70 25 4 561 8 1192 9 1011 1 1155 -1 1215 -15z m5718 2 c50 -12 67 -23
106 -63 27 -29 55 -72 69 -108 27 -69 27 -58 22 -766 l-3 -417 -28 -113 c-49
-192 -113 -332 -235 -514 -77 -114 -279 -317 -406 -407 -158 -112 -391 -218
-566 -258 -27 -7 -58 -14 -69 -16 -95 -21 -375 -32 -476 -19 -305 41 -580 156
-813 339 -81 64 -250 234 -307 308 -163 214 -275 445 -325 673 -31 142 -36
212 -31 410 4 179 7 210 32 294 87 306 247 518 466 621 37 17 89 33 115 37 27
3 51 7 53 9 2 2 529 4 1170 4 966 0 1176 -3 1226 -14z m-3812 -903 c-15 -319
62 -728 188 -1002 16 -35 28 -65 26 -67 -1 -2 -34 8 -72 22 -134 49 -238 66
-400 67 -167 0 -277 -17 -407 -63 -88 -31 -88 -31 -48 50 44 88 129 382 146
505 26 196 36 326 32 447 l-4 138 265 3 c146 1 269 3 272 5 4 1 4 -46 2 -105z
m-5520 -198 c53 -22 84 -66 92 -130 10 -76 1 -922 -9 -932 -14 -13 -103 95
-145 176 -47 92 -61 127 -144 351 -110 299 -120 397 -50 481 54 63 173 89 256
54z m10735 -28 c56 -37 77 -86 76 -177 -1 -66 -10 -103 -73 -290 -89 -267
-167 -429 -251 -523 l-60 -68 0 491 c0 534 -1 528 56 565 43 28 74 35 146 31
52 -3 77 -9 106 -29z m-5323 -1283 c116 -19 230 -56 327 -106 184 -95 288
-228 288 -367 0 -183 -176 -359 -440 -441 -292 -91 -679 -49 -898 96 -77 51
-167 146 -199 212 -36 74 -40 191 -7 262 40 86 160 197 280 258 173 88 429
122 649 86z m4362 -426 c-7 -341 -20 -426 -87 -567 -32 -66 -57 -100 -113
-155 -116 -114 -222 -155 -397 -156 -213 0 -455 67 -736 204 l-169 82 70 18
c362 93 642 213 899 385 38 25 79 53 92 62 65 43 259 216 320 285 38 43 77 87
87 98 9 11 17 23 17 28 0 4 5 8 11 8 8 0 10 -79 6 -292z m-8940 160 c187 -220
495 -442 793 -571 108 -47 254 -100 325 -118 89 -23 262 -59 285 -59 l25 0
-25 -20 c-80 -62 -311 -155 -505 -204 -344 -88 -622 -42 -808 133 -101 96
-139 171 -177 356 -15 75 -19 134 -18 350 1 259 1 259 20 235 11 -14 49 -60
85 -102z m6083 -793 c99 -6 177 -20 297 -51 261 -67 473 -164 834 -382 267
-161 283 -169 405 -230 281 -140 524 -202 780 -200 168 1 280 19 425 68 250
83 429 206 566 388 30 39 59 72 64 72 5 0 8 -56 5 -132 -4 -155 -29 -250 -97
-377 -190 -354 -557 -579 -1068 -656 -188 -28 -568 -13 -791 31 -167 33 -411
109 -501 155 -22 11 -39 16 -39 11 0 -32 210 -344 270 -402 20 -19 130 -148
130 -152 0 -7 -163 18 -238 37 -242 59 -460 164 -777 374 -88 58 -167 110
-176 116 -9 5 -63 34 -120 64 -153 79 -243 80 -284 1 -49 -95 13 -214 220
-424 12 -12 60 -58 109 -103 48 -46 84 -83 79 -83 -34 0 -219 45 -309 75 -487
162 -892 538 -1072 995 -38 97 -72 228 -72 280 0 38 6 47 63 101 162 155 431
299 685 364 132 35 293 62 377 64 38 1 71 4 74 6 2 2 22 2 45 0 22 -3 75 -7
116 -10z m-2891 -15 c95 -16 282 -67 374 -101 269 -99 539 -275 578 -377 22
-56 -49 -296 -132 -452 -73 -135 -170 -262 -304 -396 -154 -156 -247 -227
-430 -332 -89 -51 -270 -125 -375 -155 -85 -23 -222 -49 -228 -42 -4 3 9 18
28 32 66 50 252 238 300 303 63 86 87 136 96 197 6 48 5 51 -33 91 -34 36 -46
42 -81 42 -76 0 -194 -56 -349 -164 -259 -183 -547 -340 -740 -405 -101 -34
-234 -65 -328 -76 -33 -4 -67 -8 -75 -11 -8 -2 20 32 62 76 85 87 178 201 231
282 62 94 118 190 114 194 -2 2 -35 -8 -73 -22 -471 -179 -914 -226 -1399
-149 -95 15 -245 65 -371 125 -299 141 -546 389 -628 631 -38 110 -56 277 -40
358 8 39 16 34 91 -66 120 -160 318 -293 550 -369 91 -30 133 -39 273 -61 46
-7 274 -7 325 0 175 25 303 57 466 117 176 65 459 226 659 374 98 73 391 213
560 268 166 54 204 64 355 88 125 19 415 20 524 0z m1523 -1813 c451 -358 968
-556 1568 -598 180 -13 706 -6 870 11 536 55 948 142 1395 293 321 109 696
297 847 425 70 58 65 58 90 10 122 -232 211 -534 249 -843 13 -107 7 -556 -9
-630 -6 -27 -18 -88 -27 -135 -9 -47 -34 -148 -57 -225 -40 -139 -154 -463
-168 -478 -4 -4 -24 14 -45 40 -69 86 -248 263 -346 343 -241 196 -487 319
-652 326 -156 6 -257 -68 -257 -189 0 -60 12 -91 85 -218 142 -246 187 -427
185 -728 -1 -202 -10 -282 -50 -443 -83 -327 -201 -585 -358 -780 -42 -52 -66
-72 -60 -50 4 12 -41 151 -74 232 -100 245 -234 444 -430 637 -62 61 -126 122
-143 136 -42 34 -221 157 -229 157 -3 0 -6 -24 -6 -52 0 -122 -58 -422 -106
-550 -99 -266 -179 -405 -363 -633 -191 -237 -450 -453 -806 -672 -27 -17
-133 -77 -235 -133 -307 -171 -372 -211 -635 -395 -113 -78 -261 -195 -360
-284 -16 -15 -62 -54 -101 -88 l-70 -62 -114 106 c-295 273 -592 487 -960 693
-129 72 -150 84 -233 131 -40 23 -88 50 -107 61 -70 41 -257 166 -330 222
-478 368 -778 803 -885 1286 -19 85 -47 287 -48 348 0 18 -14 11 -95 -47 -92
-65 -102 -73 -191 -156 -291 -269 -452 -534 -567 -934 -6 -18 -85 71 -158 178
-135 198 -232 449 -297 771 -27 137 -35 452 -14 580 30 181 94 352 186 497 22
35 49 87 60 115 38 96 9 183 -79 234 -40 24 -59 28 -138 30 -78 2 -103 -2
-177 -27 -160 -53 -309 -140 -497 -290 -85 -68 -309 -290 -367 -364 l-31 -40
-12 30 c-55 137 -154 457 -184 595 -10 41 -21 93 -26 115 -5 22 -12 65 -16 95
-4 30 -9 64 -11 75 -2 11 -6 117 -9 235 -10 388 46 696 198 1090 23 58 42 106
44 108 4 5 40 -16 58 -33 40 -40 225 -154 356 -219 281 -139 558 -238 945
-336 254 -65 443 -100 750 -140 415 -53 972 -53 1307 0 345 55 587 134 897
293 251 129 449 271 669 479 l73 69 104 -100 c58 -55 146 -133 197 -174z"/>
<path d="M3925 11619 c-141 -20 -341 -92 -495 -176 -374 -205 -707 -572 -906
-998 -48 -104 -74 -165 -70 -165 2 0 25 28 51 63 126 162 346 362 537 488 152
100 437 231 577 265 9 2 36 8 61 14 25 6 53 13 62 16 15 5 14 -2 -7 -45 -63
-124 -80 -286 -46 -419 29 -112 67 -178 151 -263 118 -120 235 -171 396 -171
349 0 634 291 634 647 0 123 -35 259 -92 355 -112 189 -299 332 -493 376 -103
24 -248 29 -360 13z"/>
<path d="M8395 11624 c-79 -13 -158 -39 -245 -81 -82 -40 -107 -59 -190 -142
-162 -163 -226 -320 -218 -541 7 -187 62 -314 198 -450 124 -124 251 -179 415
-178 115 0 186 17 286 69 276 144 382 471 248 767 -16 36 -29 66 -29 67 0 5
216 -54 272 -73 385 -136 749 -391 982 -690 27 -34 51 -61 52 -59 5 4 -33 88
-92 202 -239 466 -650 853 -1084 1021 -163 63 -267 84 -425 89 -77 2 -153 1
-170 -1z"/>
</g>
</svg>
